<?xml version="1.0" standalone="no"?> <!DOCTYPE svg PUBLIC "-//W3C//DTD SVG 1.0//EN" "http://www.w3.org/TR/2001/REC-SVG-20010904/DTD/svg10.dtd" > <svg xmlns="http://www.w3.org/2000/svg" width="100%" height="100%">
<defs >
<font id="helveticaltstd-ultracomp" horiz-adv-x="316" ><font-face
    font-family="Helvetica LT Std UltCompressed"
    units-per-em="1000"
    panose-1="2 11 6 8 2 2 2 6 2 4"
    ascent="718"
    descent="-282"
    alphabetic="0" />
<missing-glyph horiz-adv-x="500" d="M0 0V700H500V0H0ZM250 395L420 650H80L250 395ZM280 350L450 95V605L280 350ZM80 50H420L250 305L80 50ZM50 605V95L220 350L50 605Z" />
<glyph unicode=" " glyph-name="space" horiz-adv-x="166" />
<glyph unicode="!" glyph-name="exclam" horiz-adv-x="204" d="M152 153H52V712H152V153ZM152 0H52V111H152V0Z" />
<glyph unicode="&quot;" glyph-name="quotedbl" horiz-adv-x="333" d="M197 441V712H285V441H197ZM47 441V712H135V441H47Z" />
<glyph unicode="#" glyph-name="numbersign" horiz-adv-x="333" d="M342 288V214H268L243 0H176L201 214H104L79 0H13L37 214H-34V288H47L62 424H-10V498H71L97 712H163L138 498H235L260 712H326L302 498H367V424H293L278 288H342ZM226 424H129L114 288H211L226 424Z" />
<glyph unicode="$" glyph-name="dollar" horiz-adv-x="333" d="M197 740V695Q242 696 274 666T306 590V445H200V567Q200 595 195 602T168 610Q135 610 135 582V511Q135 486 170 442L263 324Q289 291 297 267T306 204V107Q299 56 275 30T193 0V-51H137V0Q82 -3
52 29Q26 58 26 108V262H132V140Q132 121 133 111T143 93T168 85Q197 85 197 116V188Q197 220 178 246L44 428Q26 454 26 497V582Q45 678 141 695V740H197Z" />
<glyph unicode="%" glyph-name="percent" horiz-adv-x="500" d="M16 403V582Q16 647 37 679T121 712Q162 712 191 693T226 633V409Q224 365 195 342T117 318Q16 318 16 403ZM97 615V421Q97 406 97 400T104 387T123 380Q135 380 140 388T146 407T145 428V604Q146
611 146 619T144 634T137 645T123 650Q106 650 102 642T97 615ZM274 85V264Q274 329 295 361T379 394Q420 394 449 375T484 315V91Q482 47 453 24T375 0Q274 0 274 85ZM355 297V103Q355 88 355 82T362 69T381 62Q393 62 398 70T404 89T403 110V286Q404 293 404
301T402 316T395 327T381 332Q364 332 360 324T355 297ZM159 -8H111L344 720H392L159 -8Z" />
<glyph unicode="&amp;" glyph-name="ampersand" horiz-adv-x="389" d="M138 303V129Q138 90 153 78T198 65Q223 65 229 74Q166 198 141 303H138ZM215 524V625Q215 653 184 653Q166 653 159 645T152 614V517Q152 488 170 463Q215 491 215 524ZM263 380H356V127Q356
108 345 75H380V0H316Q293 0 279 13Q243 -14 182 -14Q119 -14 76 26T32 130V271Q32 373 95 409Q56 456 56 570Q56 650 84 688T192 726Q262 726 286 691T311 578Q311 513 288 471T201 388Q234 307 261 196H263V380Z" />
<glyph unicode="&apos;" glyph-name="quotesingle" horiz-adv-x="222" d="M67 441V712H155V441H67Z" />
<glyph unicode="(" glyph-name="parenleft" horiz-adv-x="167" d="M98 712H185Q101 518 101 323Q101 78 190 -97H102Q13 69 13 323Q13 516 98 712Z" />
<glyph unicode=")" glyph-name="parenright" horiz-adv-x="167" d="M-18 712H69Q154 516 154 323Q154 69 65 -97H-23Q66 78 66 323Q66 518 -18 712Z" />
<glyph unicode="*" glyph-name="asterisk" horiz-adv-x="315" d="M221 454L156 537L93 454L48 485L115 566L15 614L37 657L131 615V712H183V616L278 657L300 614L197 567L266 485L221 454Z" />
<glyph unicode="+" glyph-name="plus" horiz-adv-x="500" d="M207 330V531H295V330H495V242H295V41H207V242H5V330H207Z" />
<glyph unicode="," glyph-name="comma" horiz-adv-x="166" d="M74 -125H15L47 111H147L74 -125Z" />
<glyph unicode="-" glyph-name="hyphen" horiz-adv-x="166" d="M20 264V336H147V264H20Z" />
<glyph unicode="." glyph-name="period" horiz-adv-x="166" d="M133 0H33V111H133V0Z" />
<glyph unicode="/" glyph-name="slash" horiz-adv-x="278" d="M234 726H287L43 -14H-10L234 726Z" />
<glyph unicode="0" glyph-name="zero" horiz-adv-x="333" d="M28 130V577Q28 656 62 688T166 720T270 688T305 577V130Q305 -8 161 -8Q101 -8 65 27T28 130ZM134 590V134Q134 117 135 107T145 87T168 77Q199 77 199 130V590Q199 611 190 623T164 635Q152 635 143
623T134 590Z" />
<glyph unicode="1" glyph-name="one" horiz-adv-x="333" d="M48 545V619Q97 627 121 647T145 712H232V0H126V545H48Z" />
<glyph unicode="2" glyph-name="two" horiz-adv-x="333" d="M144 85H301V0H28V45Q28 103 45 161T88 266T139 356T181 441T199 516V582Q199 635 170 635Q134 635 134 582V457H28V569Q28 651 64 685T182 720Q305 720 305 556Q305 489 281 421T227 305T172 197T144 85Z" />
<glyph unicode="3" glyph-name="three" horiz-adv-x="333" d="M28 262H134V153Q134 77 163 77Q181 77 190 87T199 132V261Q199 318 150 318H134V403Q172 400 185 418T199 473V537Q201 575 197 605T170 635Q151 635 143 624T135 597T134 567V459H28V575Q28 654
63 687T170 720Q305 720 305 581V466Q305 381 221 362V358Q275 340 290 318T305 256V136Q305 56 270 24T167 -8Q86 -8 57 34T28 161V262Z" />
<glyph unicode="4" glyph-name="four" horiz-adv-x="333" d="M135 712H285V266H327V181H285V0H184V181H6V255L135 712ZM94 266H184V622H182Q144 424 94 266Z" />
<glyph unicode="5" glyph-name="five" horiz-adv-x="333" d="M28 262H134V129Q134 112 135 103T146 85T171 77Q189 77 194 90T199 129V307Q199 355 167 355Q141 355 137 333H32V712H298V627H138V416Q178 447 216 447Q305 447 305 311V138Q305 69 274 31T162 -8Q103
-8 66 20T28 113V262Z" />
<glyph unicode="6" glyph-name="six" horiz-adv-x="333" d="M305 321V132Q305 67 276 30T165 -8Q28 -8 28 124V577Q28 720 168 720Q241 720 273 683T305 573V456H199V590Q199 612 193 623T167 635T141 624T134 590V400Q166 434 213 434Q305 434 305 321ZM199 123V296Q199
338 165 338Q134 338 134 296V137Q134 117 135 107T144 87T169 77Q182 77 189 85T198 101T199 123Z" />
<glyph unicode="7" glyph-name="seven" horiz-adv-x="333" d="M20 627V712H314V624L159 0H46L208 627H20Z" />
<glyph unicode="8" glyph-name="eight" horiz-adv-x="333" d="M28 122V255Q28 300 45 327T114 367V369Q66 372 48 399T28 473V584Q28 657 69 688T162 720Q221 720 262 688T304 584L305 484Q305 456 299 433T272 391T221 369V367Q264 355 284 332T305 286V107Q305
55 267 24T163 -8Q100 -8 64 26T28 122ZM199 128V281Q199 320 166 320Q134 320 134 281V128Q134 77 168 77Q199 77 199 128ZM199 460V589Q199 616 192 625T167 635Q136 635 134 589V463Q134 435 141 426T169 417Q199 417 199 460Z" />
<glyph unicode="9" glyph-name="nine" horiz-adv-x="333" d="M28 353V586Q28 651 57 688T168 726Q305 726 305 594V141Q305 -2 165 -2Q92 -2 60 35T28 145V216H134V128Q134 106 140 95T166 83T192 94T199 128V274Q167 240 120 240Q28 240 28 353ZM134 595V378Q134
336 168 336Q199 336 199 378V581Q199 601 198 611T189 631T164 641Q151 641 144 633T135 617T134 595Z" />
<glyph unicode=":" glyph-name="colon" horiz-adv-x="166" d="M133 0H33V111H133V0ZM133 410H33V521H133V410Z" />
<glyph unicode=";" glyph-name="semicolon" horiz-adv-x="166" d="M67 -125H8L40 111H140L67 -125ZM133 410H33V521H133V410Z" />
<glyph unicode="&lt;" glyph-name="less" horiz-adv-x="500" d="M469 137V62L32 253V319L469 510V435L130 286L469 137Z" />
<glyph unicode="=" glyph-name="equal" horiz-adv-x="500" d="M495 432V344H5V432H495ZM495 228V140H5V228H495Z" />
<glyph unicode="&gt;" glyph-name="greater" horiz-adv-x="500" d="M31 435V510L468 319V253L31 61V137L369 286L31 435Z" />
<glyph unicode="?" glyph-name="question" horiz-adv-x="333" d="M140 460H44V618Q44 726 163 726Q225 726 257 699T289 601V521Q289 464 278 443L229 347Q218 326 218 264V153H118V305Q118 344 129 367L176 462Q193 498 193 521V620Q193 642 189 649T166 656Q152
656 146 648T140 617V460ZM218 0H118V111H218V0Z" />
<glyph unicode="@" glyph-name="at" horiz-adv-x="800" d="M365 222Q418 222 457 276T496 388Q496 424 473 450T417 476Q362 476 323 424T284 313Q284 273 306 248T365 222ZM526 488L543 544H619L551 282Q532 214 561 214Q607 214 646 272T686 406Q686 522 609
588T415 654Q287 654 207 569T126 354Q126 224 210 141T425 58Q490 58 548 82T647 151H725Q675 73 595 30T421 -14Q262 -14 152 92T42 357Q42 512 151 619T416 726Q555 726 656 640T757 422Q757 353 731 296T665 205T586 154T515 136Q491 136 474 151T456 195H454Q399
136 342 136Q279 136 235 185T191 301Q191 402 253 480T411 558Q490 558 526 488Z" />
<glyph unicode="A" glyph-name="A" horiz-adv-x="333" d="M135 286H190L168 582H161L135 286ZM6 0L87 712H246L327 0H220L200 193H125L102 0H6Z" />
<glyph unicode="B" glyph-name="B" horiz-adv-x="333" d="M134 631V417H158Q179 417 187 428T196 470V578Q196 608 188 619T158 631H134ZM28 0V712H178Q240 712 271 678T302 584V471Q301 427 278 408T204 376V374Q259 363 282 341T305 263V150Q305 83 273 42T177
0H28ZM134 332V85H155Q178 85 188 97T199 141V276Q199 308 189 320T155 332H134Z" />
<glyph unicode="C" glyph-name="C" horiz-adv-x="333" d="M305 452H199V597Q199 623 192 632T167 641Q149 641 142 632T134 597V115Q134 89 141 80T167 71Q184 71 191 80T199 115V269H305V106Q305 42 265 14T166 -14Q109 -14 69 14T28 106V606Q28 670 68 698T166
726Q224 726 264 698T305 606V452Z" />
<glyph unicode="D" glyph-name="D" horiz-adv-x="333" d="M28 0V712H156Q237 712 271 678T305 551V129Q305 75 272 38T179 0H28ZM134 627V85H159Q181 85 190 95T199 138V574Q199 607 190 617T159 627H134Z" />
<glyph unicode="E" glyph-name="E" horiz-adv-x="278" d="M269 0H31V712H267V619H137V436H262V343H137V93H269V0Z" />
<glyph unicode="F" glyph-name="F" horiz-adv-x="278" d="M137 0H31V712H269V619H137V436H264V343H137V0Z" />
<glyph unicode="G" glyph-name="G" horiz-adv-x="333" d="M157 355H305V0H252L249 45H247Q218 -14 151 -14Q104 -14 66 14T28 106V606Q28 670 68 698T166 726Q224 726 264 698T305 606V455H199V597Q199 623 192 632T167 641Q149 641 142 632T134 597V115Q134 89
141 80T167 71Q184 71 191 80T199 115V270H157V355Z" />
<glyph unicode="H" glyph-name="H" horiz-adv-x="333" d="M137 0H31V712H137V439H196V712H302V0H196V346H137V0Z" />
<glyph unicode="I" glyph-name="I" horiz-adv-x="167" d="M136 0H30V712H136V0Z" />
<glyph unicode="J" glyph-name="J" horiz-adv-x="333" d="M196 712H302V108Q302 44 261 15T163 -14Q105 -14 67 23T31 119V271H137V122Q137 100 142 88T152 74T167 71Q180 71 188 80T196 122V712Z" />
<glyph unicode="K" glyph-name="K" horiz-adv-x="333" d="M137 0H31V712H137V391H140L221 712H324L243 387L326 0H217L140 361H137V0Z" />
<glyph unicode="L" glyph-name="L" horiz-adv-x="278" d="M272 0H31V712H137V93H272V0Z" />
<glyph unicode="M" glyph-name="M" horiz-adv-x="481" d="M289 0H192L154 343Q150 376 142 462T129 581H125Q125 569 127 518T129 442V0H36V712H193L227 418Q243 302 244 196H249Q257 401 259 417L288 712H445V0H352V328Q352 461 356 581H352Q349 551 338 436T326
307L289 0Z" />
<glyph unicode="N" glyph-name="N" horiz-adv-x="389" d="M31 712H190L220 507Q256 307 270 104H274V142Q275 180 273 250T271 350V712H358V0H201L151 356Q140 414 119 608H115Q115 606 118 516V0H31V712Z" />
<glyph unicode="O" glyph-name="O" horiz-adv-x="333" d="M134 597V115Q134 89 141 80T167 71Q184 71 191 80T199 115V597Q199 623 192 632T167 641Q149 641 142 632T134 597ZM28 106V606Q28 670 68 698T166 726Q224 726 264 698T305 606V106Q305 42 265 14T166
-14Q109 -14 69 14T28 106Z" />
<glyph unicode="P" glyph-name="P" horiz-adv-x="333" d="M305 573V419Q305 273 178 273H134V0H28V712H139Q224 712 264 681T305 573ZM134 627V358Q155 358 166 359T188 367T199 390V559Q199 597 189 612T153 627H134Z" />
<glyph unicode="Q" glyph-name="Q" horiz-adv-x="333" d="M134 597V115Q134 89 141 80T167 71Q184 71 191 80T199 115V597Q199 623 192 632T167 641Q149 641 142 632T134 597ZM28 106V606Q28 670 68 698T166 726Q224 726 264 698T305 606V106Q305 36 252 7Q252
0 268 0H315V-79H261Q225 -79 214 -62T200 -10Q195 -11 183 -13Q178 -14 166 -14Q109 -14 69 14T28 106Z" />
<glyph unicode="R" glyph-name="R" horiz-adv-x="333" d="M134 0H28V712H168Q235 712 270 684T305 590V489Q305 443 284 416T200 382V380Q296 368 301 293Q302 284 305 171T318 0H212Q201 52 199 135T199 272Q199 305 185 318T134 330V0ZM134 627V417H154Q199
417 199 463V592Q199 627 159 627H134Z" />
<glyph unicode="S" glyph-name="S" horiz-adv-x="333" d="M134 270V115Q134 89 141 80T167 71Q184 71 191 80T199 115V190Q199 217 182 249T139 311T89 371T46 437T28 504V606Q28 670 68 698T166 726Q224 726 264 698T305 606V456H199V597Q199 623 192 632T167
641Q149 641 142 632T134 597V509Q134 488 176 434T262 322T305 232V106Q305 42 265 14T166 -14Q109 -14 69 14T28 106V270H134Z" />
<glyph unicode="T" glyph-name="T" horiz-adv-x="315" d="M12 712H303V619H211V0H105V619H12V712Z" />
<glyph unicode="U" glyph-name="U" horiz-adv-x="333" d="M199 712H305V106Q305 42 265 14T166 -14Q109 -14 69 14T28 106V712H134V115Q134 89 141 80T167 71Q184 71 191 80T199 115V712Z" />
<glyph unicode="V" glyph-name="V" horiz-adv-x="333" d="M4 712H110L143 415Q147 380 155 275T167 135H169Q169 142 190 391L222 712H328L244 0H84L4 712Z" />
<glyph unicode="W" glyph-name="W" horiz-adv-x="481" d="M198 0H75L10 712H117L139 453Q149 308 152 201H157Q157 257 169 478L193 712H308L330 431Q334 382 341 201H346Q354 381 357 410L384 712H470L399 0H284L266 256Q265 290 259 384T253 531H248Q243 492
238 414T228 296L198 0Z" />
<glyph unicode="X" glyph-name="X" horiz-adv-x="333" d="M100 0H1L90 360L9 712H119Q161 518 169 431H172Q177 511 214 646L231 712H330L244 387L332 0H223L185 172Q182 188 179 208T172 245T167 278T164 302L162 311Q161 264 152 215T124 96T100 0Z" />
<glyph unicode="Y" glyph-name="Y" horiz-adv-x="333" d="M4 712H113L148 557Q158 511 171 403H173Q178 498 191 552L229 712H328L219 271V0H113V266L4 712Z" />
<glyph unicode="Z" glyph-name="Z" horiz-adv-x="259" d="M13 712H246V634L122 93H247V0H11V74L134 619H13V712Z" />
<glyph unicode="[" glyph-name="bracketleft" horiz-adv-x="222" d="M208 -97H30V712H208V642H118V-27H208V-97Z" />
<glyph unicode="\" glyph-name="backslash" horiz-adv-x="278" d="M-57 726H-3L335 -14H279L-57 726Z" />
<glyph unicode="]" glyph-name="bracketright" horiz-adv-x="222" d="M14 -97V-27H104V642H14V712H192V-97H14Z" />
<glyph unicode="^" glyph-name="asciicircum" horiz-adv-x="500" d="M100 308H10L209 712H291L490 308H400L250 620L100 308Z" />
<glyph unicode="_" glyph-name="underscore" horiz-adv-x="500" d="M500 -125H0V-75H500V-125Z" />
<glyph unicode="`" glyph-name="grave" horiz-adv-x="148" d="M48 804L141 633H87L-51 804H48Z" />
<glyph unicode="a" glyph-name="a" horiz-adv-x="278" d="M162 98V296Q145 286 137 280T123 263T116 238V94Q119 73 139 75Q162 79 162 98ZM258 483V0H168Q162 12 162 39H160Q144 13 129 3T85 -7Q20 -7 20 59V251Q20 283 34 302T69 330T109 351T144 387T159 452Q158
462 159 474T155 498T140 509Q127 509 122 497T117 469T117 443V368H20V483Q20 527 52 553T139 579T226 553T258 483Z" />
<glyph unicode="b" glyph-name="b" horiz-adv-x="278" d="M162 110V462Q162 497 139 497T116 462V110Q116 75 139 75T162 110ZM20 0V712H116V536H118Q145 579 187 579Q217 579 237 562T258 512V60Q258 27 238 10T187 -7Q147 -7 118 34H116V0H20Z" />
<glyph unicode="c" glyph-name="c" horiz-adv-x="278" d="M20 89V483Q20 527 52 553T139 579T226 553T258 483V368H162V474Q162 509 139 509T116 474V91Q116 73 121 68T139 63T156 68T162 91V225H258V89Q258 45 226 19T139 -7T52 19T20 89Z" />
<glyph unicode="d" glyph-name="d" horiz-adv-x="278" d="M116 462V110Q116 75 139 75T162 110V462Q162 497 139 497T116 462ZM258 712V0H162V34H160Q131 -7 91 -7Q61 -7 41 10T20 60V512Q20 545 40 562T91 579Q133 579 160 536H162V712H258Z" />
<glyph unicode="e" glyph-name="e" horiz-adv-x="278" d="M162 225H258V89Q258 45 226 19T139 -7T52 19T20 89V483Q20 527 52 553T139 579T226 553T258 483V273H116V91Q116 73 121 68T139 63T156 68T162 91V225ZM162 340V481Q162 499 157 504T139 509T122 504T116
481V340H162Z" />
<glyph unicode="f" glyph-name="f" horiz-adv-x="167" d="M35 0V496H5V572H35V644Q35 676 50 694T107 712H161V636H148Q131 635 131 607V572H161V496H131V0H35Z" />
<glyph unicode="g" glyph-name="g" horiz-adv-x="278" d="M116 462V182Q116 147 139 147T162 182V462Q162 497 139 497T116 462ZM258 572V-32Q258 -76 226 -102T139 -128T52 -102T20 -32V39H114V-23Q114 -58 137 -58T160 -23V104H158Q137 65 92 65Q57 65 39 85T20
141V503Q20 539 38 559T92 579Q126 579 162 538V572H258Z" />
<glyph unicode="h" glyph-name="h" horiz-adv-x="278" d="M116 712V539H118Q139 579 184 579Q210 579 226 573T248 549T256 518T258 476V0H162V462Q162 497 141 497Q116 497 116 462V0H20V712H116Z" />
<glyph unicode="i" glyph-name="i" horiz-adv-x="148" d="M122 0H26V572H122V0ZM122 712V610H26V712H122Z" />
<glyph unicode="j" glyph-name="j" horiz-adv-x="148" d="M-17 -128V-52Q7 -52 16 -44T26 -12V572H122V-9Q124 -66 108 -97T39 -128H-17ZM122 712V610H26V712H122Z" />
<glyph unicode="k" glyph-name="k" horiz-adv-x="278" d="M118 0H22V712H118V309H122L174 572H270L215 314L273 0H175L122 301H118V0Z" />
<glyph unicode="l" glyph-name="l" horiz-adv-x="148" d="M122 0H26V712H122V0Z" />
<glyph unicode="m" glyph-name="m" horiz-adv-x="426" d="M121 572V534H123Q149 579 190 579Q234 579 258 538Q278 579 327 579Q353 579 369 573T391 549T399 518T401 476V0H305V462Q305 497 282 497Q261 497 261 462V0H165V462Q165 497 142 497Q121 497 121 462V0H25V572H121Z"
/>
<glyph unicode="n" glyph-name="n" horiz-adv-x="278" d="M20 0V572H116V539H118Q139 579 184 579Q210 579 226 573T248 549T256 518T258 476V0H162V462Q162 497 141 497Q116 497 116 462V0H20Z" />
<glyph unicode="o" glyph-name="o" horiz-adv-x="278" d="M258 483V89Q258 45 226 19T139 -7T52 19T20 89V483Q20 527 52 553T139 579T226 553T258 483ZM162 91V481Q162 499 157 504T139 509T122 504T116 481V91Q116 73 121 68T139 63T156 68T162 91Z" />
<glyph unicode="p" glyph-name="p" horiz-adv-x="278" d="M162 110V462Q162 497 139 497T116 462V110Q116 75 139 75T162 110ZM20 -128V572H116V538H118Q147 579 194 579Q258 579 258 492V80Q258 -7 187 -7Q145 -7 118 36H116V-128H20Z" />
<glyph unicode="q" glyph-name="q" horiz-adv-x="278" d="M116 462V110Q116 75 139 75T162 110V462Q162 497 139 497T116 462ZM258 572V-128H162V36H160Q133 -7 91 -7Q61 -7 41 10T20 60V512Q20 545 40 562T91 579Q131 579 160 538H162V572H258Z" />
<glyph unicode="r" glyph-name="r" horiz-adv-x="278" d="M20 0V572H116V539H118Q139 579 184 579Q206 579 221 573T243 559T253 534T257 505T258 470V273H162V462Q162 497 141 497Q116 497 116 462V0H20Z" />
<glyph unicode="s" glyph-name="s" horiz-adv-x="278" d="M20 223H116V98Q116 63 139 63T162 98V157Q162 188 140 222T91 282T42 342T20 406V483Q20 527 52 553T139 579T226 553T258 483V365H162V474Q162 509 139 509T116 474V427Q116 408 138 380T187 326T236
268T258 205V89Q258 45 226 19T139 -7T52 19T20 89V223Z" />
<glyph unicode="t" glyph-name="t" horiz-adv-x="167" d="M130 675V572H161V496H130V122Q130 76 151 76H161V0H106Q67 0 51 25T34 76V496H6V572H34V675H130Z" />
<glyph unicode="u" glyph-name="u" horiz-adv-x="278" d="M258 572V0H162V33H160Q139 -7 94 -7Q72 -7 57 -1T35 13T25 38T21 67T20 102V572H116V110Q116 75 137 75Q162 75 162 110V572H258Z" />
<glyph unicode="v" glyph-name="v" horiz-adv-x="278" d="M76 0L2 572H98L121 373Q130 299 134 111H138Q140 133 142 202T150 310L180 572H275L196 0H76Z" />
<glyph unicode="w" glyph-name="w" horiz-adv-x="444" d="M170 572H277L293 340Q294 306 299 229T306 111H309Q310 131 313 205T322 321L341 572H440L369 0H264L241 191Q223 371 223 463H221Q215 317 208 244L182 0H69L3 572H102L123 303Q132 175 134 111H138Q141
236 147 306L170 572Z" />
<glyph unicode="x" glyph-name="x" horiz-adv-x="259" d="M9 572H105Q108 549 115 510T126 438T132 376H134Q137 410 144 475T155 572H247L199 302L255 0H159Q151 40 146 77T136 159T127 234H125Q123 199 118 161T106 73T96 0H4L62 300L9 572Z" />
<glyph unicode="y" glyph-name="y" horiz-adv-x="278" d="M70 99L4 572H99L120 382Q129 300 136 126H140Q141 137 145 228T155 362L178 572H273L188 -34Q179 -97 161 -112T82 -128Q70 -128 51 -128T23 -127V-52H52Q86 -52 86 -18Q86 -2 79 42T70 99Z" />
<glyph unicode="z" glyph-name="z" horiz-adv-x="222" d="M4 79L113 496H4V572H209V496L99 76H217V0H4V79Z" />
<glyph unicode="{" glyph-name="braceleft" horiz-adv-x="333" d="M37 278V340Q70 340 96 365T123 431V598Q123 650 159 681T236 712H314V642H261Q234 642 223 624T211 583V419Q211 391 201 369T175 336T146 318T120 310V308Q132 306 145 301T174 284T201 249T211
195V32Q211 -27 261 -27H314V-97H236Q195 -97 159 -66T123 17V183Q123 227 97 252T37 278Z" />
<glyph unicode="|" glyph-name="bar" horiz-adv-x="222" d="M67 -250V750H155V-250H67Z" />
<glyph unicode="}" glyph-name="braceright" horiz-adv-x="333" d="M19 -97V-27H72Q99 -27 110 -9T122 32V196Q122 224 132 246T158 279T187 297T213 305V307Q201 309 188 314T159 331T132 366T122 420V583Q122 642 72 642H19V712H97Q138 712 174 681T210 598V432Q210
388 236 363T296 337V275Q263 275 237 250T210 184V17Q210 -35 174 -66T97 -97H19Z" />
<glyph unicode="~" glyph-name="asciitilde" horiz-adv-x="500" d="M445 365L481 295Q461 268 448 253T410 224T356 209Q316 209 248 243T139 277Q88 277 55 205L19 275Q64 361 144 361Q185 361 259 327Q335 293 357 293Q376 293 393 305T420 329T445 365Z" />
</font>
</defs>
</svg>
